<?xml version="1.0" encoding="UTF-8" standalone="no"?>
<!-- Created with Inkscape (http://www.inkscape.org/) -->

<svg
   width="210mm"
   height="210mm"
   viewBox="0 0 210 210"
   version="1.1"
   id="svg1"
   xml:space="preserve"
   inkscape:version="1.4 (1:1.4+202410161351+e7c3feb100)"
   sodipodi:docname="logo.svg"
   xmlns:inkscape="http://www.inkscape.org/namespaces/inkscape"
   xmlns:sodipodi="http://sodipodi.sourceforge.net/DTD/sodipodi-0.dtd"
   xmlns="http://www.w3.org/2000/svg"
   xmlns:svg="http://www.w3.org/2000/svg"><sodipodi:namedview
     id="namedview1"
     pagecolor="#ffffff"
     bordercolor="#000000"
     borderopacity="0.25"
     inkscape:showpageshadow="2"
     inkscape:pageopacity="0.0"
     inkscape:pagecheckerboard="0"
     inkscape:deskcolor="#d1d1d1"
     inkscape:document-units="mm"
     inkscape:zoom="1.015496"
     inkscape:cx="396.35802"
     inkscape:cy="402.75884"
     inkscape:window-width="1920"
     inkscape:window-height="1008"
     inkscape:window-x="0"
     inkscape:window-y="0"
     inkscape:window-maximized="1"
     inkscape:current-layer="layer1" /><defs
     id="defs1"><clipPath
   id="clip1"><path
     d="M 0.289062 0 L 349.710938 0 L 349.710938 168.441406 L 0.289062 168.441406 Z M 0.289062 0 "
     id="path1" /></clipPath>
	

		
		
		
		
		
		
		
		
		
		
		
		
		
		
		
		
		
	
	
</defs><g
     inkscape:label="Layer 1"
     inkscape:groupmode="layer"
     id="layer1"><path
       style="clip-rule:nonzero;fill:#0f0c0c;fill-opacity:1;fill-rule:nonzero;stroke:none;stroke-width:0.470591"
       d="M 114.07734,3.4184128 C 125.40091,28.085791 105.66553,31.745741 98.968815,32.282499 100.97986,29.481017 101.35301,24.416664 95.762922,15.264041 l -3.95406,7.364014 c -1.566186,-0.413607 -3.362145,-0.647062 -5.272077,-0.647062 -1.952219,0 -3.784942,0.244487 -5.376859,0.674635 l -3.851124,-7.16915 C 71.874956,24.38725 72.077165,29.422189 73.94298,32.26964 67.095524,31.685073 47.762722,27.8891 58.996224,3.4184128 c 0,0 -54.6767027,9.0956232 -54.6767027,52.0498522 0,0 28.9357857,-28.884322 39.8751717,2.647077 0,0 22.946789,-7.290473 20.103027,15.860357 2.41361,-2.191184 5.272079,-3.459577 8.332756,-3.459577 6.042303,0 11.286805,4.933852 13.906309,12.167339 2.621331,-7.233487 7.864008,-12.167339 13.906305,-12.167339 3.06251,0 5.91914,1.268393 8.33275,3.459577 -2.84376,-23.149003 20.10303,-15.860357 20.10303,-15.860357 10.9394,-31.531399 39.87518,-2.647077 39.87518,-2.647077 0,-42.954229 -54.67671,-52.0498522 -54.67671,-52.0498522"
       id="path2"
       clip-path="url(#clipPath2)" /><g
       id="g1"
       transform="matrix(0.53617214,0,0,0.53617214,-326.0394,-136.09808)"
       style="fill:#501616"><g
         id="OBJECTS"
         style="fill:#501616">
	
	
	<g
   id="g6"
   transform="translate(729.69267,194.97861)"
   style="fill:#501616">
		<path
   style="fill:#501616"
   d="m 43.28,338.085 c -0.008,-0.017 -0.017,-0.035 -0.017,-0.035 -0.115,0.047 -0.104,0.057 0.017,0.035 z"
   id="path5" />
		<path
   style="fill:#501616"
   d="m 225.978,300.739 c -3.384,-2.85 -10.688,-13.894 -17.368,-13.894 0,0 -16.477,-3.117 -24.048,13.716 -1.794,3.99 -2.341,8.269 -2.137,12.624 1.928,14.11 11.05,28.965 8.995,37.252 -0.414,-2.816 -1.855,-6.358 -3.58,-10.359 -7.181,-3.896 -21.201,-10.708 -36.05,-13.247 -13.248,-2.266 -24.396,3.237 -42.485,0.373 -17.378,-3.015 -63.643,10.433 -66.027,10.881 0.173,0.358 2.122,4.198 6.583,4.884 l -4.92,0.6 c 0,0 -0.368,2.661 2.696,4.03 6.652,2.202 7.319,5.628 18.81,11.468 13.118,6.667 24.458,16.481 39.201,24.643 -12.821,-14.517 -20.202,-28.05 -20.202,-28.671 0,0 -1.876,-6.776 1.866,-8.549 0,0 -3.239,-6.442 -0.482,-8.609 0,0 -1.144,-7.285 4.335,-7.285 1.445,0.12 49.788,-1.987 78.908,25.572 C 137.16,331.8 92.659,333.836 92.068,333.245 c -4.748,-0.12 -2.228,5.177 -2.228,5.177 -3.251,2.047 0.903,8.97 0.903,8.97 -3.742,1.773 -3.251,3.853 -3.13,5.418 0.702,3.308 8.75,16.714 21.345,32.671 11.03,5.701 24.032,10.357 40.968,12.156 36.666,3.894 68.489,2.114 76.05,-29.033 0.267,-8.372 -5.611,-19.505 -12.914,-28.857 -9.708,-11.935 -7.125,-22.979 -7.125,-22.979 2.939,0.267 6.68,-3.117 9.174,-3.117 0,0 27.121,4.241 29.124,1.692 2.941,-3.738 -10.686,-5.519 -18.257,-14.604 z"
   id="path6" />
	</g>
	
</g></g><g
       id="g3"
       transform="matrix(0.52022768,0,0,0.52022768,-43.145262,-17.913694)"><g
         id="OBJECTS-5"
         transform="translate(34.704685,-45.768737)">
	<path
   d="m 261.777,300.433 c -2.533,-2.748 -8.185,-5.58 -13.561,-7.707 -5.377,-2.127 -11.662,-3.25 -19.297,-2.63 -4.514,0.367 -10.073,1.54 -13.867,2.438 0.683,-4.126 1.081,-9.008 1.022,-10.181 -0.072,-1.434 3.74,-1.864 6.68,-5.365 2.939,-3.501 4.779,-5.03 7.396,-5.4 2.617,-0.37 11.04,0.407 13.681,0.515 2.641,0.107 3.49,-2.091 2.928,-3.74 -0.562,-1.649 -2.844,-4.17 -5.317,-5.723 -2.473,-1.553 -4.659,-2.163 -6.894,-3.729 -2.234,-1.565 -3.668,-1.494 -4.444,-2.653 -0.777,-1.159 -3.752,-7.958 -9.128,-10.085 -5.377,-2.127 -14.601,-4.542 -19.094,-3.359 -4.493,1.183 -12.821,2.317 -17.457,5.424 -4.637,3.106 -5.509,4.827 -8.221,8.077 -2.712,3.25 -5.294,9.128 -7.576,11.398 -2.282,2.27 -9.535,5.747 -11.531,8.961 -1.996,3.214 -3.585,9.762 -4.948,11.267 -0.447,0.495 -0.905,1.358 -1.449,2.489 -2.054,0.411 -4.627,0.803 -7.01,0.808 -5.03,0.012 -18.664,-4.338 -24.936,-5.223 -6.273,-0.885 -25.809,1.289 -36.455,3.977 -10.647,2.688 -18.808,7.168 -22.787,13.835 -3.565,5.973 -0.968,9.392 5.185,7.887 6.153,-1.505 15.509,-6.045 24.351,-6.487 8.842,-0.441 19.309,-1.922 25.63,-0.082 6.321,1.84 11.16,2.796 16.896,2.51 2.584,-0.129 6.608,-0.622 10.251,-1.125 -1.8,3.489 -3.467,6.97 -5.95,10.493 -4.027,5.711 -7.051,12.331 -8.521,21.268 -1.47,8.938 -5.39,16.799 -7.661,24.101 -2.271,7.301 -4.302,14.59 -4.637,22.272 -0.335,7.684 -0.048,13.418 4.934,17.242 0,0 1.246,0.762 3.048,1.66 -0.248,1.357 -0.407,2.842 -0.145,3.705 0.573,1.889 2.629,4.66 2.796,8.006 0.167,3.346 1.099,7.611 1.099,7.611 l 1.04,1.625 c 0,0 0.322,6.453 1.541,6.871 1.219,0.418 1.948,-4.17 1.948,-4.17 0,0 3.465,2.223 4.242,3.381 0.776,1.16 1.123,3.299 2.557,3.227 1.434,-0.072 1.565,-2.234 1.494,-3.668 -0.071,-1.434 0.347,-2.652 0.347,-2.652 l 1.374,3.525 1.027,1.385 c 0,0 1.088,-2.209 1.016,-3.645 -0.071,-1.434 0.502,-4.338 -0.55,-6.201 -1.051,-1.863 -1.864,-3.74 -3.643,-5.807 -1.78,-2.066 -0.824,-2.115 -1.947,-5.412 -0.769,-2.258 -1.303,-4.283 -1.881,-5.563 4.334,-1.738 8.683,-5.529 10.318,-7.797 1.792,-2.484 3.154,-3.99 5.819,-3.404 2.664,0.586 5.639,2.594 10.24,3.561 4.6,0.969 10.24,-1.23 11.028,0.168 0.789,1.399 2.126,8.998 5.818,10.971 0.151,0.08 0.315,0.15 0.476,0.223 -0.412,1.242 -0.804,2.801 -0.739,4.102 0.131,2.629 0.095,6.703 0.191,8.615 0.096,1.91 0.131,2.629 -0.765,3.871 -0.896,1.242 -2.223,3.465 -3.86,4.266 -1.637,0.801 -1.971,3.691 -1.876,5.604 0.06,1.199 0.594,2.467 1.576,3.277 0.585,0.482 0.348,1.656 1.794,1.824 1.446,0.168 2.772,-2.055 2.772,-2.055 0,0 4.181,-0.885 4.732,-1.195 0,0 3.166,1.041 5.102,1.424 1.936,0.381 3.334,-0.406 4.529,-0.467 1.195,-0.059 2.533,2.748 3.477,2.461 0.944,-0.285 1.302,-2.699 1.505,-3.428 0.203,-0.729 2.044,-2.258 4.159,-3.082 2.115,-0.824 4.039,-0.682 5.269,-0.025 1.23,0.658 2.258,2.045 2.976,2.008 0.717,-0.035 0.526,-3.859 -1.469,-5.435 -1.996,-1.578 -4.254,-3.621 -6.452,-4.469 -2.199,-0.85 -6.273,-0.885 -7.731,-1.291 -1.458,-0.406 -2.676,-0.824 -2.676,-0.824 0,0 -1.912,-4.697 -2.498,-6.824 -0.585,-2.127 -0.824,-2.115 -0.43,-3.811 0.395,-1.697 2.259,-2.748 3.37,-4.48 2.808,-1.338 3.859,-4.268 4.182,-7.396 0.323,-3.131 0.228,-5.043 2.211,-8.496 1.983,-3.453 3.441,-7.838 4.672,-11.973 1.231,-4.133 3.108,-19.32 3.037,-25.545 -0.071,-6.225 -1.051,-11.447 -0.31,-15.796 0.741,-4.349 3.645,-8.567 4.613,-13.167 0.952,-4.525 3.091,-13.042 3.366,-18.346 1.212,-0.482 2.79,-1.067 4.736,-1.704 5.186,-1.696 13.622,-0.68 17.253,0.097 3.633,0.776 13.335,3.167 17.982,5.091 4.648,1.924 9.308,4.087 10.551,0.191 1.239,-3.899 0.009,-9.347 -2.524,-12.095 z m -107.835,1.716 c -0.376,0.524 -0.846,1.115 -1.416,1.701 -0.575,0.583 -1.229,1.176 -2.118,1.593 l -0.371,0.117 c -0.102,0.034 -0.205,0.054 -0.308,0.081 l -0.61,0.153 c -0.403,0.107 -0.808,0.184 -1.194,0.274 -0.776,0.171 -1.507,0.31 -2.137,0.41 -1.258,0.212 -2.118,0.267 -2.118,0.267 0,0 0.778,-0.381 1.978,-0.823 0.598,-0.226 1.302,-0.469 2.061,-0.707 0.381,-0.114 0.77,-0.249 1.173,-0.356 l 0.607,-0.17 c 0.101,-0.03 0.206,-0.053 0.303,-0.09 l 0.233,-0.079 c 0.661,-0.286 1.312,-0.82 1.9,-1.31 0.587,-0.503 1.123,-1.006 1.586,-1.437 0.934,-0.87 1.557,-1.451 1.557,-1.451 0,0 -0.369,0.782 -1.126,1.827 z m 60.984,-5.917 c -0.063,0.61 -0.1,1.323 -0.168,2.08 -0.035,0.377 -0.071,0.767 -0.108,1.163 -0.01,0.39 -0.021,0.787 -0.031,1.183 -0.017,0.41 -0.058,0.76 -0.058,1.214 -0.001,0.403 -0.031,0.8 -0.045,1.185 -0.003,0.381 -0.052,0.758 -0.112,1.119 -0.049,0.358 -0.109,0.695 -0.164,1.003 -0.114,0.616 -0.268,1.113 -0.363,1.463 -0.109,0.348 -0.185,0.542 -0.185,0.542 0,0 -0.028,-0.838 -0.024,-2.058 -0.036,-0.616 0.024,-1.292 -0.032,-2.068 -0.012,-0.384 -0.041,-0.781 -0.041,-1.185 -0.008,-0.353 0.016,-0.821 0.024,-1.23 0.023,-0.422 0.047,-0.845 0.07,-1.261 0.039,-0.41 0.136,-0.801 0.198,-1.186 0.142,-0.766 0.286,-1.476 0.477,-2.07 0.335,-1.197 0.679,-1.957 0.679,-1.957 -0.001,0.001 -0.019,0.84 -0.117,2.063 z"
   id="path1-62" />
	
	
	
</g></g><g
       id="g5"
       transform="matrix(1.0555929,0,0,1.0555929,-3.851531,-11.7142)"
       style="fill:#ff8080"><path
         d="m 148.71111,61.882339 c 0.0799,0.05715 0.17436,0.08625 0.26908,0.08625 0.0749,0 0.14976,-0.01799 0.21828,-0.0545 0.17701,-0.09472 4.34605,-2.353205 4.86728,-5.220494 0.52943,-2.91174 0.66331,-7.67424 0.66887,-7.875587 0.001,-0.04339 -0.004,-0.0852 -0.0138,-0.125413 0.41539,-0.378619 0.65378,-0.600604 0.6604,-0.606954 0.18706,-0.174361 0.19711,-0.467519 0.0228,-0.654315 -0.17462,-0.18706 -0.46778,-0.197114 -0.65431,-0.02275 -0.0198,0.01852 -2.00793,1.871398 -4.61407,4.086754 -2.32939,1.979877 -2.8075,4.951677 -3.06467,6.548173 -0.0471,0.2921 -0.0876,0.544248 -0.12753,0.703792 -0.38629,1.544637 1.54596,2.976827 1.76768,3.135048 z m -0.86915,-2.910417 c 0.0495,-0.197644 0.091,-0.455348 0.1434,-0.781315 0.23812,-1.478756 0.68104,-4.230952 2.75008,-5.989637 1.18374,-1.00621 2.24128,-1.938602 3.04694,-2.660385 -0.0601,1.477962 -0.23257,4.81621 -0.62733,6.987116 -0.37438,2.059517 -3.24855,3.8989 -4.13438,4.421452 -0.51435,-0.430477 -1.34831,-1.299369 -1.17871,-1.977231 z"
         id="path1-3"
         style="fill:#ff8080;stroke-width:0.264583" /><path
         d="m 120.77561,61.78312 c 0.054,-0.0717 0.0857,-0.157427 0.0915,-0.247121 0.13864,-2.080419 -1.96903,-5.292196 -4.69847,-7.159889 -2.39898,-1.641475 -5.38904,-6.681523 -5.41894,-6.732323 -0.13017,-0.220134 -0.4138,-0.293688 -0.6342,-0.163513 -0.22014,0.129911 -0.29343,0.413809 -0.16351,0.633942 0.0386,0.06562 0.34739,0.586317 0.83105,1.327414 -0.0198,0.02514 -0.0376,0.05265 -0.0526,0.08229 -0.0603,0.120914 -0.57864,1.284817 -0.17833,4.888441 0.4482,4.034367 2.1291,6.992144 4.86066,8.552921 0.7067,0.403754 1.38351,0.564621 2.00792,0.564621 1.56634,5.29e-4 2.80353,-1.011502 3.35492,-1.746779 z m -4.90326,0.378619 c -3.11309,-1.778794 -4.11083,-5.25145 -4.39975,-7.851246 -0.2339,-2.104231 -0.13574,-3.29909 -0.0331,-3.890698 1.13242,1.638565 2.73923,3.717131 4.20635,4.72096 2.38284,1.630363 4.31138,4.423834 4.30239,6.193632 -0.38127,0.446087 -1.95369,2.039937 -4.07591,0.827352 z"
         id="path2-6"
         style="fill:#ff8080;stroke-width:0.264583" /><path
         d="m 129.49654,89.241313 c 1.27344,1.091407 2.88237,1.599671 5.06386,1.599671 0.92948,0 1.83859,-0.09181 2.64028,-0.172508 0.63791,-0.06429 1.24037,-0.125148 1.72535,-0.125148 1.90394,0 7.69805,0 8.77358,-3.227123 0.85169,-2.554817 -0.87683,-4.732337 -2.02062,-6.172994 -0.21855,-0.275166 -0.40693,-0.512762 -0.55272,-0.720989 -0.10371,-0.148167 -0.22225,-0.319617 -0.35295,-0.508265 -1.07447,-1.552046 -2.87258,-4.149725 -4.00288,-4.903258 -0.48578,-0.32385 -1.39356,-0.533136 -2.31299,-0.533136 -0.84429,0 -2.41644,0.183621 -3.45678,1.412875 -0.30216,0.357188 -0.59875,0.714375 -0.89429,1.07024 -1.14327,1.376892 -2.22303,2.677848 -3.56421,3.915569 -1.29619,1.196446 -2.58789,3.286125 -2.55164,5.257535 0.0225,1.225021 0.52917,2.27039 1.50601,3.107531 z m 1.67376,-7.684029 c 1.38641,-1.279789 2.53629,-2.664883 3.6486,-4.004733 0.29369,-0.353748 0.58843,-0.708819 0.88873,-1.063625 0.79905,-0.944033 2.06587,-1.085056 2.74982,-1.085056 0.80936,0 1.51791,0.189971 1.79917,0.37756 0.98319,0.655373 2.78632,3.26046 3.75523,4.659842 0.1315,0.190235 0.25109,0.363008 0.3556,0.512233 0.16166,0.231246 0.36777,0.490802 0.58605,0.765704 1.08056,1.361281 2.56037,3.225536 1.86743,5.304631 -0.57362,1.721115 -3.23003,2.593711 -7.89517,2.593711 -0.53155,0 -1.15649,0.06297 -1.81821,0.12991 -0.78026,0.07858 -1.6645,0.167746 -2.54741,0.167746 -1.9476,0 -3.36524,-0.437356 -4.46114,-1.376892 -0.76729,-0.657754 -1.16523,-1.472406 -1.18269,-2.421202 -0.0307,-1.675077 1.1467,-3.538008 2.25399,-4.559829 z"
         id="path3-0"
         style="fill:#ff8080;stroke-width:0.264583" /><path
         d="m 143.18688,87.689267 c 1.08241,0 1.87404,-0.622035 2.0656,-1.623218 0.26961,-1.407848 -0.99298,-3.37185 -1.54834,-4.151048 -0.24051,-0.337344 -1.48035,-2.026444 -2.27516,-2.141008 -0.0315,-0.0048 -0.0624,-0.0066 -0.0934,-0.0066 -0.13944,0 -0.40349,0.04763 -0.6059,0.366712 -0.65352,1.030288 -0.41936,5.19139 0.081,6.253163 0.35534,0.754592 1.35493,1.302014 2.37623,1.302014 z m -1.74414,-6.919647 c 0.86387,0.571235 3.17738,3.673475 2.9001,5.122597 -0.13758,0.719932 -0.70458,0.871009 -1.15596,0.871009 -0.64823,0 -1.33827,-0.345811 -1.53856,-0.770731 -0.46328,-0.983721 -0.51144,-4.3688 -0.20558,-5.222875 z"
         id="path4-6"
         style="fill:#ff8080;stroke-width:0.264583" /><path
         d="m 134.72735,88.122655 v 0 c 1.18931,0 2.37755,-0.607748 2.76411,-1.413933 0.55615,-1.159934 0.5715,-5.180013 -0.12939,-6.293115 -0.2241,-0.355864 -0.49768,-0.430477 -0.68765,-0.430477 -0.0392,0 -0.0783,0.0032 -0.1188,0.01005 -0.82311,0.138906 -2.23969,1.830652 -2.98264,2.987411 -0.66411,1.034256 -1.39409,2.498725 -1.09829,3.602831 0.25797,0.962554 1.10014,1.537229 2.25266,1.537229 z m -0.55218,-4.355042 c 0.85434,-1.423458 1.99601,-2.578364 2.43469,-2.817812 0.40905,0.699823 0.54293,4.322762 0.0463,5.358606 -0.23099,0.481542 -1.11443,0.888471 -1.92908,0.888206 -0.42201,0 -1.15967,-0.110596 -1.35811,-0.851164 -0.14499,-0.542661 0.1487,-1.482196 0.80619,-2.577836 z"
         id="path5-2"
         style="fill:#ff8080;stroke-width:0.264583" /><path
         d="m 147.48874,95.743449 c -0.16008,-0.199232 -0.45165,-0.230452 -0.65088,-0.07064 -0.0402,0.03228 -4.08966,3.234531 -10.61164,4.002087 -6.52198,0.767554 -12.63915,-2.302933 -12.7,-2.333889 -0.22807,-0.115888 -0.50668,-0.0254 -0.62283,0.202141 -0.11615,0.227542 -0.0259,0.506413 0.20188,0.622565 0.22939,0.11721 5.09031,2.560897 10.92967,2.560897 0.75274,0 1.52215,-0.0407 2.29949,-0.13229 6.80138,-0.800097 10.91274,-4.06188 11.08446,-4.200257 0.19896,-0.160602 0.22992,-0.451644 0.0699,-0.65061 z"
         id="path6-6"
         style="fill:#ff8080;stroke-width:0.264583" /><path
         d="m 124.30912,120.08855 c -1.97697,0.93001 -4.02008,-0.34792 -4.04998,-0.36724 -0.21457,-0.13811 -0.50085,-0.0765 -0.63949,0.13759 -0.13891,0.21484 -0.0775,0.50138 0.13705,0.64029 0.073,0.0474 1.35361,0.85936 2.98873,0.85936 0.61728,0 1.28535,-0.11588 1.95766,-0.43232 0.23124,-0.10901 0.33072,-0.38471 0.22172,-0.61622 -0.10875,-0.23125 -0.38497,-0.33073 -0.61569,-0.22146 z"
         id="path7-1"
         style="fill:#ff8080;stroke-width:0.264583" /><path
         d="m 138.39951,102.60039 c -2.98609,0.87127 -7.07523,-0.635 -7.11624,-0.65035 -0.23945,-0.09 -0.50641,0.0318 -0.5961,0.2712 -0.0897,0.23945 0.0317,0.50615 0.27093,0.59611 0.13705,0.0513 2.6588,0.98213 5.3086,0.98213 0.80645,0 1.62533,-0.0863 2.39183,-0.30983 0.24554,-0.0717 0.38629,-0.32861 0.31486,-0.57414 -0.0714,-0.24553 -0.32862,-0.38576 -0.57388,-0.31512 z"
         id="path8"
         style="fill:#ff8080;stroke-width:0.264583" /><path
         d="m 184.01976,113.71183 c 0.0511,-1.48987 -0.0505,-2.97365 -0.32094,-4.40293 -0.0783,-0.41381 -0.17807,-0.85328 -0.29845,-1.31313 0.0161,-0.0362 0.0296,-0.0738 0.0362,-0.11483 0.0106,-0.0661 1.05595,-6.17008 6.54288,-8.12191 -1.37531,1.96638 -3.8108,6.22062 -2.68473,10.41744 0.0524,0.195 0.22542,0.3339 0.42704,0.34263 0.20955,0.006 0.38629,-0.1143 0.45535,-0.30427 0.0177,-0.0492 1.6166,-4.36906 4.34498,-5.97429 -1.02261,1.99734 -2.77812,6.10024 -1.63724,8.90138 0.0733,0.17965 0.24659,0.2884 0.42916,0.2884 0.0582,0 0.11721,-0.0111 0.17436,-0.0344 0.23706,-0.0966 0.35057,-0.36671 0.25426,-0.60352 -1.35017,-3.31337 2.17964,-9.18289 2.21562,-9.24189 0.0974,-0.1606 0.0886,-0.36407 -0.0228,-0.51514 -0.11139,-0.15135 -0.30269,-0.21961 -0.48525,-0.17463 -2.71595,0.67892 -4.58602,3.7084 -5.50095,5.56683 -0.26379,-4.63788 3.54065,-9.131826 3.58325,-9.181567 0.12912,-0.150284 0.14843,-0.366184 0.0476,-0.53684 -0.10055,-0.170921 -0.30031,-0.258762 -0.49266,-0.218281 -5.06201,1.05066 -7.22471,5.110158 -8.07323,7.485588 -0.39714,-1.58273 -0.8853,-5.06835 1.32212,-8.19229 0.41566,0.339989 0.99854,0.571764 1.74493,0.691091 0.29078,0.04657 0.5633,0.07011 0.80963,0.07011 0.82364,0 1.41446,-0.257969 1.75577,-0.766233 0.20452,-0.3048 0.28337,-0.652463 0.29607,-0.984779 0.263,0.133614 0.56594,0.227806 0.89667,0.227806 0.62812,0 1.20227,-0.325173 1.7063,-0.967052 0.54213,-0.689769 0.51594,-1.289844 0.39899,-1.671902 -0.24844,-0.80989 -1.10516,-1.360223 -1.74572,-1.669521 0.42916,-0.43815 0.93054,-1.113896 0.94351,-1.888067 0.0108,-0.670454 -0.32756,-1.268148 -1.00595,-1.776941 -0.38338,-0.287602 -0.77946,-0.433388 -1.1774,-0.433388 -0.98213,0 -1.68619,0.866246 -2.11005,1.610519 -0.4691,-1.00039 -1.3327,-2.339975 -2.59503,-2.339975 -0.26988,0 -0.54187,0.06297 -0.80883,0.187589 -0.5633,0.262996 -0.93716,0.690828 -1.08083,1.237986 -0.20029,0.762 0.0728,1.613694 0.37095,2.242608 -0.20743,-0.02434 -0.4318,-0.04075 -0.65828,-0.04075 -0.83318,0 -1.43563,0.221721 -1.7907,0.659342 -0.31883,0.392906 -0.41064,0.922867 -0.27332,1.575594 0.25876,1.229254 1.16946,1.906323 2.56461,1.906323 0.39079,0 0.77126,-0.05265 1.09511,-0.118534 -0.10319,0.434446 -0.13362,0.966788 0.0807,1.475582 -1.63275,2.171435 -2.05026,4.490242 -2.02168,6.366142 -1.80526,-3.995211 -4.78235,-8.607163 -9.15062,-12.70794 -2.76278,-2.593711 -5.09878,-6.113727 -8.0563,-10.570104 l -0.43656,-0.657755 c -2.05634,-3.095889 -5.45438,-6.97177 -8.82412,-8.564826 -0.019,-0.009 -0.0386,-0.01455 -0.0585,-0.02064 -0.87604,-1.029494 -1.68646,-2.020358 -2.24287,-3.082925 -1.16708,-2.228056 -1.73038,-4.123002 -1.89204,-4.719637 1.31868,-0.662782 3.63617,-1.968765 4.88421,-3.504671 1.87166,-2.303463 1.9431,-8.104452 1.68831,-10.397331 -0.26353,-2.370402 -0.92419,-5.950479 -0.93107,-5.986198 -0.032,-0.172508 -0.15875,-0.312208 -0.32756,-0.360627 -0.16854,-0.04842 -0.35031,0.0026 -0.46884,0.132291 -0.50747,0.553509 -1.57956,1.205178 -2.82125,1.959769 -2.14683,1.304661 -4.81886,2.928144 -6.59553,5.212821 -1.31816,1.694921 -1.84283,3.48906 -2.02169,4.954587 -2.40162,-1.922727 -8.07323,-3.006725 -11.12493,-2.883958 -3.21998,0.128588 -8.00947,1.957388 -10.64101,4.035425 -0.26035,-0.868627 -0.73316,-1.827742 -1.55258,-2.810933 -1.62639,-1.951831 -3.479,-3.38799 -4.96782,-4.542102 -0.99324,-0.769938 -1.85102,-1.4351 -2.45586,-2.090209 -1.54569,-1.674547 -3.50996,-4.548187 -3.52954,-4.577027 -0.0863,-0.12647 -0.22939,-0.202141 -0.38259,-0.202141 0,0 -5.3e-4,0 -5.3e-4,0 -0.15345,0 -0.29659,0.0762 -0.38258,0.2032 -0.1061,0.156368 -2.59715,3.89546 -2.32834,9.4107 0.26882,5.510477 2.71754,10.724356 4.83579,12.136702 0.71623,0.477572 1.53855,0.853281 2.31008,1.141677 -0.0466,0.04709 -0.0849,0.103981 -0.10848,0.170391 -0.0225,0.0635 -2.25557,6.364817 -3.1668,8.577263 -0.0939,0.22807 -0.20426,0.484981 -0.32517,0.766498 -1.06124,2.469885 -3.03689,7.067285 -1.66396,10.68652 0.45508,1.199621 1.40176,2.478088 2.62175,3.707606 -0.2913,0.829205 -2.99376,8.801365 -1.17184,14.137214 1.62587,4.76145 3.59251,10.35341 5.12313,13.69986 -1.29302,-1.31048 -2.93846,-2.40109 -4.99481,-2.79479 -0.18864,-0.0354 -0.381,0.0487 -0.4818,0.21299 -0.10054,0.16431 -0.0889,0.37386 0.0294,0.52599 0.0384,0.0492 3.24352,4.19947 4.39949,7.68853 -1.00568,-1.09194 -2.61144,-2.52307 -4.78737,-3.52002 0.082,-2.22435 -0.16616,-6.13569 -2.33177,-9.76233 1.20967,-0.063 1.96267,-0.82391 2.07327,-2.11243 0.0648,-0.75354 -0.0931,-1.34303 -0.46884,-1.7526 -0.36354,-0.39608 -0.90038,-0.5969 -1.59597,-0.5969 -0.18759,0 -0.372,0.0151 -0.54398,0.0378 0.26696,-0.71622 0.50588,-1.73037 0.16642,-2.56249 -0.23124,-0.56753 -0.70591,-0.96996 -1.37239,-1.16416 -0.21326,-0.0622 -0.42572,-0.0934 -0.63236,-0.0934 -1.58512,0 -2.43628,1.78991 -2.82786,2.98503 -0.5252,-0.68712 -1.36128,-1.50098 -2.374374,-1.50098 -0.518319,0 -1.009914,0.21352 -1.461029,0.63447 -0.67945,0.63394 -0.970492,1.31286 -0.864658,2.01771 0.124618,0.83159 0.799306,1.47902 1.343818,1.87616 -0.67945,0.42201 -1.59676,1.15014 -1.744662,2.07063 -0.06641,0.41275 -0.0013,1.03743 0.684742,1.67137 0.557477,0.51488 1.140089,0.77603 1.731433,0.77603 0.51012,0 0.94536,-0.19474 1.29222,-0.44186 0.0468,0.32253 0.15558,0.65485 0.37227,0.9406 0.2413,0.31855 0.71702,0.6985 1.61396,0.6985 h 2.7e-4 c 0.40534,0 0.87577,-0.0773 1.39832,-0.2294 1.30783,-0.381 2.10211,-1.00515 2.36061,-1.85552 0.0939,-0.30903 0.10372,-0.61436 0.0664,-0.90064 1.92855,3.24352 2.23705,6.73946 2.19684,8.89132 -1.35414,-0.47625 -2.57096,-0.56965 -3.58273,-0.48816 0.0368,-0.10504 0.037,-0.2233 -0.0103,-0.3339 -0.1188,-0.27702 -2.97366,-6.78021 -8.792902,-6.36482 -0.180975,0.013 -0.337608,0.13018 -0.400843,0.30004 -0.06324,0.16986 -0.0217,0.36116 0.106362,0.48921 0.02884,0.0288 2.505869,2.52757 3.498056,5.13901 -1.638564,-1.10623 -4.467489,-2.67547 -5.643033,-1.26471 -0.107685,0.12912 -0.135996,0.30692 -0.07514,0.46355 0.06059,0.1569 0.202671,0.26855 0.369359,0.29157 0.109802,0.0151 2.693723,0.40402 3.041385,3.30041 0.02805,0.23522 0.228071,0.40799 0.459052,0.40799 0.01852,0 0.03704,-0.001 0.05583,-0.003 0.253736,-0.0304 0.434975,-0.26088 0.404548,-0.51488 -0.221192,-1.8452 -1.204383,-2.87549 -2.120371,-3.44276 1.211263,0.36566 2.866496,1.37742 4.022457,2.27595 0.15081,0.11721 0.35745,0.12991 0.52123,0.0323 0.16377,-0.0976 0.25109,-0.28575 0.2196,-0.47361 -0.39608,-2.37622 -2.289168,-4.83341 -3.360201,-6.06451 4.483091,0.43471 6.818841,5.73669 6.843711,5.79411 0.0116,0.0275 0.0264,0.0529 0.0426,0.0767 -1.35096,0.25003 -2.18201,0.76359 -2.2471,0.80512 -0.15346,0.0979 -0.23575,0.27623 -0.20982,0.45641 0.0259,0.18018 0.15478,0.32835 0.32967,0.37915 0.0489,0.014 4.90617,1.44118 6.77678,3.81079 1.52453,1.93093 1.7272,4.14047 1.75101,4.86834 -2.32542,-1.19195 -5.85205,-2.06666 -9.83642,0.15187 -0.18256,0.1016 -0.27463,0.313 -0.22436,0.51593 0.0503,0.20294 0.23045,0.34687 0.43947,0.35137 0.0606,0.001 6.08912,0.17436 8.86275,3.93991 0.0907,0.12303 0.23124,0.18838 0.37333,0.18838 0.0952,0 0.19155,-0.0294 0.27437,-0.0902 0.20584,-0.1516 0.24977,-0.44159 0.0982,-0.64743 -2.09338,-2.84189 -5.72188,-3.81371 -7.86712,-4.1455 5.67399,-2.09682 9.90732,2.2188 10.10497,2.42491 0.17621,0.18521 0.46937,0.19235 0.65457,0.0159 0.18521,-0.17648 0.19236,-0.46937 0.0159,-0.65458 -0.0201,-0.0212 -0.76147,-0.7792 -2.02671,-1.55999 0.0333,-0.0603 0.055,-0.12753 0.0582,-0.20108 0.006,-0.12594 0.11642,-3.11309 -1.9513,-5.73193 -1.46976,-1.86161 -4.44077,-3.1414 -6.08754,-3.74068 1.10464,-0.3564 3.00779,-0.64955 5.29564,0.30639 0.0487,0.0331 0.10398,0.0563 0.16431,0.0688 3.74994,1.64597 5.80734,4.79689 5.82771,4.82864 0.1143,0.1778 0.33443,0.25612 0.53525,0.18944 0.20055,-0.0664 0.33099,-0.26035 0.31644,-0.47122 -0.20426,-2.96122 -2.82284,-7.01728 -4.18518,-8.94556 4.03384,1.53458 6.11929,6.2267 6.76222,7.94226 0.51779,1.70445 0.79296,3.33666 0.60643,4.3942 -0.10319,0.585 -0.0598,1.11178 0.12382,1.57586 -0.37121,0.87339 -1.69783,4.22328 -0.85883,5.62187 0.70749,1.17924 1.95606,0.69612 2.70219,0.40719 0.23812,-0.0926 0.59637,-0.23627 0.69797,-0.21537 0.14128,0.0564 0.43365,0.33576 0.69188,0.58208 0.6432,0.61384 1.51077,1.44198 2.5191,1.44198 0.0601,0 0.12091,-0.003 0.18203,-0.009 0.63077,-0.063 1.34567,-0.54372 1.96109,-1.31816 1.20703,-1.51924 1.7661,-3.7674 1.51289,-6.04335 0.18971,-0.21563 0.35216,-0.45032 0.47228,-0.7104 0.27464,-0.59531 0.50827,-1.32424 0.69295,-2.1254 1.06812,0.4318 4.23359,1.56607 8.02798,1.56607 1.28482,0 2.64213,-0.13256 4.01347,-0.46408 -0.0331,0.48577 -0.0738,0.92789 -0.12039,1.30148 -0.055,0.44133 -0.13335,0.86837 -0.20902,1.28138 -0.15319,0.83661 -0.28548,1.55919 -0.18521,2.15953 0.0437,0.26088 0.17728,0.50297 0.40191,0.73025 -0.37836,0.99431 -1.3507,3.82111 -0.76068,5.20621 0.1569,0.36803 0.41936,0.63367 0.75882,0.76782 1.28535,0.50879 2.19393,-0.036 2.79506,-0.39635 0.16034,-0.096 0.4027,-0.2413 0.46249,-0.24553 0.1024,0.0402 0.35587,0.31327 0.54108,0.51276 0.51832,0.5588 1.24857,1.3462 2.18307,1.34594 0.23548,0 0.48393,-0.05 0.74507,-0.1659 2.54423,-1.13083 2.53101,-4.69185 2.52466,-6.40344 v -0.0251 c 0.0807,-0.0595 0.15266,-0.12382 0.2196,-0.19103 0.10319,0.32703 0.29554,0.61357 0.61516,0.86942 0.49582,0.39661 1.12659,0.3138 1.61925,0.14261 -0.0132,0.94589 0.17197,2.35876 1.35731,2.59557 0.18203,0.0365 0.41037,0.0545 0.67151,0.0545 1.68037,0 4.70032,-0.75433 5.25092,-2.25266 0.19182,0.0394 0.39211,0.0651 0.6096,0.0651 1.08559,0 2.51037,-0.49319 4.48151,-1.47876 0.26168,-0.1307 0.62019,-0.33205 0.95488,-0.52546 -0.56065,1.87219 -0.80353,3.34248 -0.82523,3.47768 -0.0405,0.25241 0.13123,0.49001 0.38365,0.53049 0.0249,0.004 0.0497,0.006 0.0741,0.006 0.22331,0 0.41989,-0.16192 0.45667,-0.38973 0.0103,-0.0646 0.9615,-5.82163 3.5007,-9.11622 -0.25903,2.14815 -0.51832,6.04123 0.68368,7.84463 0.0979,0.14685 0.27067,0.22331 0.44636,0.20214 0.17515,-0.0235 0.32173,-0.14446 0.37809,-0.3122 0.0161,-0.0484 1.52611,-4.43045 5.15831,-5.75258 -0.64823,1.18719 -1.48299,3.27052 -1.0242,5.56419 0.0103,0.0511 0.0302,0.0974 0.055,0.14023 -0.67812,1.11522 -0.95038,2.07513 -0.97393,2.16059 -0.0672,0.24685 0.0781,0.50138 0.32491,0.56859 0.24686,0.0672 0.50139,-0.0786 0.56859,-0.32491 0.01,-0.036 0.88318,-3.12738 3.52584,-4.48813 -0.86387,1.43404 -1.99417,3.88567 -1.2327,5.97959 0.0627,0.17303 0.22199,0.2921 0.40588,0.30374 0.18282,0.0145 0.35665,-0.0863 0.44106,-0.24977 0.49133,-0.95356 1.94892,-3.16415 3.60309,-3.80709 -0.62045,1.03055 -1.32847,2.72018 -0.4355,4.10977 0.0886,0.13785 0.23759,0.21273 0.38999,0.21273 0.0857,0 0.17251,-0.0238 0.25003,-0.0735 0.21511,-0.13838 0.27729,-0.42466 0.13918,-0.63977 -0.98981,-1.53961 1.00171,-3.92403 1.02182,-3.94811 0.11403,-0.13467 0.14181,-0.32253 0.0714,-0.48392 -0.0704,-0.16166 -0.22621,-0.26988 -0.40243,-0.27808 -2.11957,-0.0979 -3.90181,2.03994 -4.81039,3.40095 -0.0286,-2.43046 2.08386,-5.13318 2.10873,-5.16466 0.12224,-0.15425 0.13335,-0.3691 0.0281,-0.53525 -0.10531,-0.16616 -0.30454,-0.24792 -0.4961,-0.20294 -1.70206,0.39714 -2.92047,1.36816 -3.7711,2.39395 -0.18309,-2.74399 1.57771,-5.07471 1.59676,-5.09958 0.11642,-0.15055 0.12885,-0.35745 0.0309,-0.5207 -0.0979,-0.16351 -0.2868,-0.25056 -0.4736,-0.21907 -3.7383,0.62283 -5.75125,3.92959 -6.55637,5.64038 -0.23204,-0.78052 -0.32438,-1.77562 -0.33682,-2.80458 0.0587,-0.002 0.11801,-0.0135 0.17516,-0.0389 3.5687,-1.59121 7.09877,-3.35836 8.74844,-5.49699 0.44186,-0.57256 0.84932,-1.18295 1.22476,-1.82059 0.36989,1.0406 1.33165,1.91664 2.62017,2.37146 0.44291,0.1561 0.88715,0.23389 1.32027,0.23389 0.47413,0 0.93398,-0.0945 1.36393,-0.27887 -0.11774,0.74559 -0.50747,2.03835 -1.78832,3.23929 -0.67839,0.63579 -1.25201,1.02949 -1.67085,1.3171 -0.51249,0.35163 -0.8509,0.58367 -0.84984,0.99086 0.001,0.37412 0.31803,0.58923 0.43736,0.67019 0.2405,0.16325 0.56832,0.24236 0.94721,0.24236 1.16443,0 2.81199,-0.74798 3.89519,-2.10476 1.61793,-2.02592 1.88939,-4.98502 1.23429,-6.76566 0.31273,-0.73369 0.52413,-1.59676 0.62072,-2.56461 0.38761,-3.89493 -4.32356,-6.94901 -5.24272,-7.5057 z m -1.44278,-18.984117 c -1.2655,0 -1.55257,-0.668337 -1.6584,-1.170781 -0.077,-0.366183 -0.0482,-0.635794 0.0863,-0.801423 0.16563,-0.203994 0.54636,-0.316706 1.07156,-0.316706 0.71173,0 1.43008,0.201348 1.43722,0.203464 0.18918,0.05345 0.39185,-0.01826 0.50509,-0.178858 0.11324,-0.160867 0.11271,-0.375444 -0.002,-0.535517 -0.28125,-0.393964 -0.96573,-1.589352 -0.75777,-2.381514 0.0746,-0.283633 0.25797,-0.485246 0.5768,-0.633942 0.14525,-0.06773 0.28178,-0.100806 0.41724,-0.100806 1.03558,0 1.89892,2.021152 2.11985,2.729177 0.0595,0.190765 0.23495,0.321733 0.43471,0.324908 0.19605,0.0066 0.37941,-0.121973 0.44503,-0.310885 0.1815,-0.522552 0.88503,-2.013744 1.7055,-2.013744 0.19288,0 0.40243,0.08334 0.62204,0.248179 0.43285,0.324644 0.64055,0.658019 0.63526,1.019175 -0.0103,0.710671 -0.83582,1.447271 -1.15226,1.670579 -0.14393,0.100807 -0.21802,0.274638 -0.19209,0.448205 0.0262,0.173831 0.14896,0.318029 0.31591,0.371739 0.41937,0.135202 1.66344,0.674952 1.8714,1.35599 0.0283,0.0926 0.11457,0.374121 -0.24183,0.827616 -0.31961,0.40693 -0.64876,0.61304 -0.97816,0.61304 -0.53234,0 -1.04352,-0.530225 -1.19486,-0.733425 -0.13785,-0.188119 -0.39423,-0.243681 -0.59849,-0.130175 -0.20399,0.113506 -0.2913,0.361685 -0.20399,0.578115 0.1053,0.262202 0.3175,1.034256 0.0344,1.45362 -0.22251,0.329407 -0.79851,0.432065 -1.64888,0.296334 -0.85937,-0.137584 -1.40017,-0.431006 -1.60734,-0.872331 -0.32332,-0.687917 0.2069,-1.599407 0.2114,-1.607344 0.1016,-0.169334 0.0844,-0.384175 -0.0423,-0.535517 -0.0897,-0.107156 -0.22067,-0.165629 -0.35507,-0.165629 -0.0553,0 -0.11139,0.01005 -0.1651,0.03043 -0.008,0.004 -0.84085,0.318029 -1.69149,0.318029 z m -76.85034,13.000307 c -0.19659,-0.0879 -0.42783,-0.0275 -0.55748,0.14499 -0.12938,0.17198 -0.12329,0.41063 0.0151,0.57573 0.007,0.009 0.7157,0.88424 0.47969,1.66026 -0.16166,0.53208 -0.74506,0.94774 -1.73355,1.23587 -0.43841,0.12753 -0.82179,0.19262 -1.13956,0.19262 -0.41963,0 -0.70564,-0.10795 -0.87471,-0.32994 -0.32676,-0.42915 -0.20161,-1.23587 -0.12621,-1.50945 0.0632,-0.22463 -0.0505,-0.46117 -0.26537,-0.55192 -0.0587,-0.0249 -0.11986,-0.0368 -0.18018,-0.0368 -0.16087,0 -0.31565,0.0841 -0.40085,0.23099 -0.006,0.0101 -0.60325,1.00012 -1.431658,1.00012 -0.350838,0 -0.722048,-0.17833 -1.103048,-0.53022 -0.464873,-0.42969 -0.415132,-0.74137 -0.398727,-0.84376 0.124089,-0.77655 1.477962,-1.5584 1.94257,-1.77086 0.162723,-0.0746 0.268283,-0.23627 0.270403,-0.41566 0.002,-0.17912 -0.0992,-0.34343 -0.260084,-0.42201 -0.392112,-0.19076 -1.435364,-0.8546 -1.550723,-1.62322 -0.05847,-0.39052 0.131498,-0.78396 0.580761,-1.20332 0.278077,-0.25929 0.549275,-0.3855 0.829204,-0.3855 0.930802,0 1.862662,1.3843 2.143392,1.9177 0.0918,0.17463 0.28469,0.27173 0.47942,0.24236 0.195,-0.0296 0.35005,-0.17912 0.38603,-0.37306 0.006,-0.0328 0.65061,-3.27105 2.1934,-3.27105 0.11879,0 0.24421,0.019 0.37306,0.0566 0.39608,0.11536 0.64902,0.31936 0.77364,0.62363 0.33311,0.81491 -0.263,2.18757 -0.5207,2.64768 -0.0942,0.16828 -0.0741,0.3773 0.05,0.52467 0.12435,0.14764 0.32729,0.2032 0.50905,0.13811 0.006,-0.002 0.59479,-0.20849 1.19698,-0.20849 0.42545,0 0.73289,0.10001 0.91361,0.29713 0.19314,0.21061 0.27013,0.56277 0.2286,1.04722 -0.0754,0.87974 -0.48102,1.27185 -1.31472,1.27185 -0.74189,-2.6e-4 -1.50045,-0.3294 -1.50733,-0.33231 z m 80.89318,12.69576 c 0.0185,0.17516 0.0233,0.3429 0.022,0.50721 -0.62045,-0.49266 -1.72509,-1.20227 -2.89931,-1.1557 -0.29924,0.0114 -0.58129,0.0728 -0.84613,0.17886 0.33549,-1.00807 0.60113,-2.04735 0.79004,-3.10198 0.9189,0.567 2.75723,1.89839 2.93344,3.57161 z M 109.85784,84.75689 c -1.2401,-3.269191 0.63924,-7.643018 1.64889,-9.992783 0.12303,-0.286279 0.23521,-0.547423 0.33073,-0.779198 0.91995,-2.233877 3.16071,-8.557154 3.1832,-8.620654 0.0246,-0.06906 0.0299,-0.1397 0.022,-0.207962 1.07341,0.342106 1.90791,0.497152 1.97247,0.508793 0.028,0.0053 0.0558,0.0077 0.0833,0.0077 0.21934,0 0.41407,-0.156633 0.45482,-0.380206 0.0458,-0.251619 -0.12091,-0.492654 -0.37253,-0.538427 -0.0283,-0.0053 -2.84216,-0.529167 -4.72096,-1.781704 -1.89098,-1.26074 -4.17301,-6.257131 -4.42463,-11.411214 -0.19341,-3.964782 1.1594,-7.011194 1.8206,-8.246005 0.67072,0.949855 2.02803,2.817813 3.19749,4.084638 0.65722,0.711729 1.54305,1.398852 2.5691,2.194189 1.52903,1.185069 3.26205,2.528623 4.82388,4.402932 2.42174,2.906183 1.42531,5.506243 1.38166,5.615516 -0.0955,0.236273 0.018,0.505619 0.254,0.601927 0.2368,0.09684 0.50694,-0.01667 0.60378,-0.253206 0.0315,-0.07673 0.4691,-1.188508 0.23997,-2.778919 0.0556,-0.01746 0.10928,-0.04366 0.1569,-0.08361 2.40533,-2.004219 7.22101,-3.87059 10.30552,-3.99415 3.44303,-0.136525 9.25724,1.259681 10.88602,3.026304 0.0363,0.03916 0.0783,0.06906 0.12277,0.09287 -0.0159,1.118394 0.14631,1.871662 0.16271,1.944158 0.0564,0.249502 0.30401,0.4064 0.55351,0.349779 0.24951,-0.05636 0.40614,-0.30427 0.34978,-0.553508 -0.009,-0.03889 -0.84772,-3.926417 1.76583,-7.286625 1.67217,-2.150004 4.2635,-3.724539 6.3455,-4.989777 0.92075,-0.559329 1.7526,-1.064948 2.37173,-1.543314 0.20981,1.191683 0.59187,3.454135 0.77576,5.109368 0.26855,2.417498 0.10821,7.748059 -1.4867,9.711002 -1.62718,2.002896 -5.47449,3.686969 -5.51338,3.703638 -0.23443,0.1016 -0.34211,0.374385 -0.24051,0.609071 0.0757,0.174625 0.24606,0.27887 0.42518,0.27887 0.0614,0 0.12383,-0.01217 0.18389,-0.03836 0.0148,-0.0066 0.0606,-0.02646 0.1307,-0.05794 0.2167,0.769938 0.79323,2.590271 1.92088,4.742656 0.67045,1.280054 1.68725,2.469356 2.67044,3.6195 1.18983,1.392238 2.42041,2.831836 2.99349,4.394729 1.37081,3.738298 0.20903,8.542602 -2.95936,12.239361 -2.7006,3.150393 -12.57935,6.329097 -16.90211,6.852972 -4.29075,0.519907 -12.03907,-0.263525 -16.10043,-1.311539 -4.1439,-1.069446 -10.61799,-5.634567 -11.98589,-9.240838 z m 16.45973,50.19225 c -0.53446,0.67284 -1.03663,0.94351 -1.32821,0.97287 -0.66145,0.0619 -1.38747,-0.62573 -1.96955,-1.18136 -0.37995,-0.36274 -0.68025,-0.64929 -0.98743,-0.77232 -0.40799,-0.16272 -0.87815,0.019 -1.37636,0.21167 -0.9353,0.36221 -1.31366,0.41381 -1.57374,-0.0201 -0.40323,-0.67231 0.1098,-2.69134 0.69506,-4.23016 0.85831,0.79984 2.21138,1.0803 3.20807,1.22264 0.27649,0.0394 0.57811,0.0598 0.89456,0.0598 1.24169,0 2.71118,-0.31486 3.8047,-1.00172 0.0733,1.81425 -0.41777,3.54383 -1.3671,4.73869 z m 21.68075,4.44976 c -0.64373,0.28655 -1.18242,-0.21854 -1.87351,-0.96334 -0.36936,-0.39847 -0.66146,-0.71306 -1.02023,-0.78687 -0.40667,-0.0847 -0.76227,0.12911 -1.13851,0.3548 -0.54927,0.32967 -1.11733,0.66993 -1.97829,0.32967 -0.0683,-0.027 -0.16853,-0.0844 -0.24738,-0.26987 -0.35348,-0.82947 0.17859,-2.88475 0.69136,-4.2926 0.45852,0.24077 1.05145,0.46434 1.7907,0.67548 0.36327,0.10398 1.40387,0.22728 2.59,0.22728 1.06521,0 2.24579,-0.10134 3.16045,-0.40455 -0.006,1.68751 -0.1434,4.31641 -1.97459,5.13 z m 6.89346,-3.0734 c -0.66966,-0.13414 -0.66569,-1.66687 -0.5588,-2.38812 0.0267,-0.18098 -0.0556,-0.36116 -0.21008,-0.45906 -0.15452,-0.0976 -0.35243,-0.0958 -0.50456,0.006 -0.31697,0.21114 -1.02526,0.51303 -1.30598,0.28813 -0.42228,-0.33787 -0.49636,-0.73872 -0.10266,-2.44475 0.01,-0.0415 0.0246,-0.0804 0.0368,-0.12091 0.0275,-0.0759 0.055,-0.15267 0.0823,-0.22966 0.37015,-0.86281 1.2618,-1.42002 1.75869,-1.67349 0.10689,0.15028 0.24738,0.2966 0.43603,0.43815 0.24289,0.1823 0.52202,0.36221 0.81703,0.55245 1.0459,0.67442 2.34739,1.51394 3.43112,3.28718 0.2958,0.48419 0.62336,0.84878 1.0033,1.10146 -0.30269,1.04061 -3.60019,1.89971 -4.88315,1.64306 z m 1.70048,-12.70661 c 0.002,0.0167 0.007,0.0318 0.0116,0.0476 -0.55245,0.63818 -1.06971,1.30599 -1.41103,1.90289 -0.14472,0.25347 -0.28469,0.48948 -0.41539,0.71014 -0.46831,0.79031 -0.88106,1.48749 -0.93636,2.1119 -0.18891,0.0881 -0.45879,0.22755 -0.75512,0.42201 0.27755,-0.78025 0.55298,-1.50706 0.80645,-2.01347 0.14261,-0.28549 0.42862,-0.80222 0.79057,-1.45654 0.49371,-0.8927 1.15147,-2.082 1.84785,-3.4118 -0.0341,0.55774 -0.0225,1.12898 0.0614,1.68725 z m 22.5806,1.50072 c -1.49569,1.93913 -4.94745,3.67268 -8.17986,5.12154 0.0516,-1.59068 0.25347,-3.13002 0.40322,-3.96293 0.0349,-0.19394 -0.0569,-0.38894 -0.22886,-0.48551 -0.17172,-0.0966 -0.38577,-0.0736 -0.53367,0.0569 -1.63221,1.44383 -2.76648,3.78487 -3.52001,5.91291 -0.13547,0.082 -1.23984,0.74904 -1.8042,1.03108 -4.2291,2.11455 -5.02126,1.49357 -5.74781,0.30507 -1.19406,-1.95395 -2.65377,-2.89534 -3.71951,-3.58246 -0.28099,-0.18124 -0.54636,-0.35243 -0.76332,-0.51515 -0.50403,-0.37809 -0.43921,-0.6723 0.4953,-2.24895 0.13308,-0.22464 0.27517,-0.46461 0.4228,-0.72285 1.00939,-1.76662 3.84969,-4.35901 3.87827,-4.38494 0.18917,-0.17197 0.2032,-0.46487 0.0312,-0.65405 -0.17198,-0.18917 -0.46488,-0.20293 -0.65405,-0.0312 -0.0638,0.058 -0.88662,0.8091 -1.80896,1.7833 -0.0519,-1.62746 0.449,-3.30253 0.74665,-4.14338 0.8816,-1.88621 1.66291,-3.80418 2.07487,-5.41972 0.0696,-0.0614 0.12382,-0.14129 0.14658,-0.23839 1.90632,-8.13382 10.88628,-12.07691 10.9765,-12.11554 0.23495,-0.10107 0.34369,-0.37333 0.24289,-0.60801 -0.10081,-0.234952 -0.37307,-0.343696 -0.60775,-0.242889 -0.14843,0.0635 -1.583,0.693469 -3.40704,1.928019 1.00171,-1.36075 2.55614,-3.127905 4.29657,-3.853128 0.23627,-0.09842 0.34766,-0.369358 0.24924,-0.605366 -0.0984,-0.236273 -0.37016,-0.347663 -0.60537,-0.249238 -3.28533,1.36869 -5.80893,5.833002 -5.91476,6.022442 -0.0386,0.0691 -0.0556,0.14367 -0.0566,0.21723 -1.1602,0.97313 -2.34395,2.15741 -3.37847,3.56314 0.66861,-3.26866 0.4752,-6.51933 0.46302,-6.71301 -0.0164,-0.25506 -0.23627,-0.44926 -0.49186,-0.432327 -0.25505,0.0164 -0.44873,0.236537 -0.43233,0.491857 0.004,0.0542 0.27279,4.56592 -0.89243,8.17854 0.11985,-3.31735 -0.27835,-6.17061 -0.30189,-6.33571 -0.0362,-0.25321 -0.27041,-0.42969 -0.52388,-0.39291 -0.25294,0.0362 -0.42889,0.27067 -0.39291,0.52388 0.008,0.0548 0.77206,5.52979 -0.12779,10.03008 -0.29501,1.47559 -0.99801,3.31232 -1.837,5.1697 -0.0489,0.0434 -0.0902,0.0966 -0.11801,0.1606 -0.014,0.0325 -0.10768,0.25056 -0.23336,0.60219 -1.19512,2.54741 -2.57677,5.04587 -3.4454,6.61591 -0.38153,0.68977 -0.65723,1.18798 -0.80857,1.49066 -0.39317,0.78661 -0.81597,2.00634 -1.22449,3.18611 -0.12541,0.36248 -0.25215,0.72681 -0.37862,1.08136 -0.0336,0.0815 -0.0632,0.16536 -0.09,0.25108 -0.28125,0.77762 -0.55827,1.48273 -0.8128,1.94919 -0.57996,1.06336 -5.00909,1.00859 -6.08092,0.70247 -1.04351,-0.29819 -1.61634,-0.57521 -1.93172,-0.79111 -0.0378,-0.0418 -0.0839,-0.0762 -0.13679,-0.10265 -0.20135,-0.16643 -0.24103,-0.28337 -0.24765,-0.32491 -0.0733,-0.44053 0.0453,-1.08929 0.18283,-1.84071 0.0778,-0.42571 0.15848,-0.86571 0.21669,-1.33323 0.29316,-2.34606 0.39159,-7.1464 -0.54028,-10.75664 -1.22634,-4.75192 -1.04589,-9.86949 -1.04404,-9.92055 0.01,-0.25559 -0.18918,-0.47069 -0.44477,-0.48048 -0.25902,-0.0114 -0.47069,0.18944 -0.48048,0.44476 -0.008,0.21431 -0.18838,5.30066 1.07262,10.18778 0.65987,2.55746 0.78237,5.73961 0.68898,8.15314 -0.0302,0.002 -0.0606,0.006 -0.0908,0.0138 -5.39856,1.37847 -10.77674,-0.65723 -11.81576,-1.08638 0.27358,-1.57904 0.36592,-3.32952 0.2204,-4.85881 -0.064,-0.67231 -0.127,-1.49622 -0.20029,-2.45057 -0.22093,-2.88634 -0.52361,-6.83922 -1.13004,-9.77027 -0.0519,-0.25056 -0.29659,-0.41037 -0.54715,-0.35957 -0.2503,0.0519 -0.41143,0.29686 -0.35957,0.54716 0.59452,2.87311 0.89455,6.79185 1.11389,9.65332 0.0733,0.95885 0.13679,1.78673 0.20161,2.46777 0.27094,2.84612 -0.30691,5.89465 -1.01785,7.43506 -0.69135,1.4978 -3.42053,2.08782 -5.07021,1.85234 -1.52902,-0.21854 -2.48787,-0.62203 -2.93105,-1.23375 -0.26935,-0.37174 -0.35137,-0.83053 -0.2503,-1.40255 0.18442,-1.04511 0.006,-2.48338 -0.39237,-4.01347 0.004,-0.0548 0,-0.11112 -0.0164,-0.16695 -0.0148,-0.0497 -0.081,-0.26723 -0.20055,-0.59981 -0.51991,-1.72747 -1.28112,-3.50652 -2.09048,-4.92284 -1.56871,-2.74505 -4.12802,-10.02691 -5.91687,-15.26566 -1.53855,-4.505593 0.4527,-11.321789 1.03584,-13.128628 2.72521,2.491052 6.44393,4.665927 9.25804,5.392208 3.23373,0.834496 8.76564,1.503892 13.12545,1.503627 1.22369,0 2.35558,-0.05265 3.31787,-0.169333 4.34843,-0.52705 14.54494,-3.729302 17.49372,-7.169944 3.38323,-3.947054 4.6101,-9.112779 3.12605,-13.160639 -0.37359,-1.019175 -0.97816,-1.96215 -1.66687,-2.86438 1.84044,1.373717 3.60071,3.271838 5.01703,5.117571 0.009,0.03572 0.0204,0.07144 0.0384,0.105304 0.027,0.05159 2.68394,5.2324 1.41182,11.466513 -0.0511,0.25056 0.11059,0.4953 0.36116,0.546364 0.0312,0.0063 0.0624,0.0095 0.0931,0.0095 0.21537,0 0.40825,-0.151341 0.45323,-0.370416 0.71014,-3.479007 0.27993,-6.599238 -0.29871,-8.79819 2.83501,4.269581 5.12762,7.666567 7.86262,10.233819 6.65136,6.244166 9.99754,13.672874 10.84209,18.136924 1.00965,5.34194 -0.40984,11.48027 -3.61711,15.63794 z m 7.5094,4.84796 c -1.1266,1.41128 -2.83924,1.89044 -3.45625,1.73355 0.0839,-0.0603 0.1815,-0.12727 0.27384,-0.1905 0.41857,-0.28708 1.05066,-0.72099 1.78038,-1.40494 2.09153,-1.96083 2.13995,-4.16163 2.13175,-4.54184 0.20267,-0.18097 0.39079,-0.38682 0.5633,-0.61648 0.2024,1.40547 -0.0447,3.45705 -1.29302,5.02021 z m 1.65708,-8.84476 c -0.19393,1.93913 -0.871,3.3692 -1.90685,4.02722 -0.69479,0.44159 -1.51606,0.51515 -2.37305,0.21246 -1.09193,-0.38549 -1.87854,-1.11865 -2.10396,-1.96162 -0.18468,-0.69003 0.0164,-1.40361 0.58155,-2.06295 0.3519,-0.41037 0.75777,-0.61886 1.2409,-0.63738 1.05092,-0.0413 2.22991,0.84534 2.70748,1.32238 -0.0775,0.25903 -0.17859,0.49266 -0.29739,0.69612 -0.0148,-0.0376 -0.0349,-0.0741 -0.0606,-0.10795 -0.0505,-0.0677 -0.5297,-0.66939 -1.71344,-0.9652 -0.66887,-0.16721 -1.29329,0.11854 -1.51845,0.69559 -0.23045,0.59029 0.006,1.44145 1.05225,2.01216 0.29607,0.16139 0.61145,0.24183 0.92922,0.24183 0.39502,-2.7e-4 0.79348,-0.12409 1.16231,-0.36989 1.06839,-0.71252 1.67164,-2.27912 1.50098,-3.89864 -0.24659,-2.3405 -2.85935,-3.98806 -3.70125,-4.46114 0.0484,-0.36327 0.0878,-0.7276 0.11827,-1.09246 1.34249,0.89614 4.6736,3.43112 4.38202,6.34947 z m -2.66594,2.22144 c -0.0487,0.0408 -0.0982,0.0775 -0.14763,0.1106 -0.26512,0.177 -0.67734,0.33496 -1.13427,0.0857 -0.52467,-0.28628 -0.7157,-0.65087 -0.63289,-0.8628 0.0389,-0.10028 0.13944,-0.15426 0.27491,-0.15426 0.0479,0 0.10027,0.007 0.1561,0.0206 0.86095,0.21511 1.18824,0.61172 1.19697,0.6223 0.073,0.0971 0.17648,0.15743 0.28681,0.1778 z"
         id="path9"
         style="fill:#ff8080;stroke-width:0.264583" /><path
         d="m 149.95598,122.21395 c -2.49079,1.30546 -5.0546,-0.35242 -5.0853,-0.37253 -0.21298,-0.14129 -0.49979,-0.0836 -0.64135,0.12885 -0.14181,0.21273 -0.0844,0.50033 0.12833,0.64214 0.0873,0.0582 1.58591,1.03664 3.51816,1.03664 0.78661,0 1.64545,-0.16219 2.50958,-0.61489 0.22648,-0.1188 0.31379,-0.39846 0.19526,-0.62495 -0.11827,-0.22648 -0.3982,-0.31379 -0.62468,-0.19526 z"
         id="path10"
         style="fill:#ff8080;stroke-width:0.264583" /><path
         d="m 121.62228,71.295155 c 0.0746,0.04472 0.15663,0.06615 0.23786,0.06615 0.15716,0 0.31062,-0.08017 0.3974,-0.224896 0.014,-0.02355 1.4359,-2.351881 3.33349,-1.904206 0.24844,0.05874 0.49821,-0.09578 0.55668,-0.344752 0.0585,-0.248973 -0.0958,-0.498211 -0.34475,-0.556683 -2.54873,-0.600075 -4.26747,2.209535 -4.33943,2.329127 -0.13177,0.219339 -0.0606,0.503766 0.15875,0.635264 z"
         id="path11"
         style="fill:#ff8080;stroke-width:0.264583" /><path
         d="m 145.46018,68.710441 c 0.0145,-0.0029 1.54278,-0.152665 2.74664,1.530879 0.0902,0.126206 0.23256,0.193675 0.37703,0.193675 0.0931,0 0.18732,-0.02805 0.26908,-0.08652 0.20796,-0.148696 0.25612,-0.437885 0.10715,-0.645848 -1.51659,-2.1209 -3.51869,-1.921669 -3.60336,-1.912673 -0.254,0.02857 -0.43682,0.257969 -0.40851,0.511969 0.0288,0.254265 0.25638,0.436562 0.51197,0.408518 z"
         id="path12"
         style="fill:#ff8080;stroke-width:0.264583" /><path
         d="m 200.47023,122.97119 c -0.0728,-0.17013 -0.24025,-0.28072 -0.42545,-0.28072 -2.10503,0 -3.8534,1.62957 -4.7551,2.67044 -0.19843,-3.03742 2.52863,-6.23465 2.55905,-6.2701 0.13177,-0.1524 0.14976,-0.3728 0.0447,-0.54451 -0.10504,-0.17172 -0.30798,-0.25638 -0.50483,-0.20823 -5.0374,1.23349 -7.9711,8.56774 -8.0936,8.87942 -0.0937,0.23786 0.0236,0.50667 0.26141,0.60007 0.23865,0.0937 0.50668,-0.0236 0.6006,-0.26141 0.0251,-0.064 2.29447,-5.73272 6.02324,-7.75731 -1.01679,1.56024 -2.36537,4.26508 -1.60575,6.79476 0.0513,0.17145 0.19711,0.29792 0.37438,0.32464 0.17727,0.027 0.35401,-0.0516 0.45376,-0.19976 0.0177,-0.0267 1.5711,-2.3069 3.61712,-2.94058 -0.58499,0.98584 -1.21867,2.65192 -0.4789,4.56909 0.0712,0.18389 0.24633,0.2966 0.43207,0.2966 0.0556,0 0.11192,-0.01 0.16669,-0.0312 0.23839,-0.0921 0.35745,-0.3601 0.26537,-0.59875 -0.95012,-2.46195 0.89694,-4.45797 0.97499,-4.54104 0.1278,-0.13388 0.16352,-0.33126 0.0902,-0.50139 z"
         id="path13"
         style="fill:#ff8080;stroke-width:0.264583" /><path
         d="m 185.81443,94.951815 c 0.32887,0.158486 0.68394,0.242094 1.02684,0.242094 0.66331,0 1.20518,-0.303477 1.44966,-0.811477 0.19314,-0.400315 0.16959,-0.883973 -0.064,-1.326621 -0.21273,-0.40296 -0.58023,-0.745596 -1.03479,-0.964406 -0.32888,-0.158486 -0.68395,-0.242094 -1.02685,-0.242094 -0.66331,0 -1.20544,0.303213 -1.44965,0.811477 -0.19288,0.400315 -0.1696,0.883973 0.0643,1.326621 0.21219,0.40296 0.57996,0.745596 1.03452,0.964406 z m -0.26459,-1.889389 c 0.0852,-0.177007 0.32094,-0.287073 0.61542,-0.287073 0.20453,0 0.42069,0.05186 0.62495,0.150283 0.27358,0.131763 0.49874,0.336815 0.61807,0.562504 0.0558,0.105834 0.13652,0.310621 0.0487,0.492654 -0.14473,0.300038 -0.74216,0.376503 -1.24037,0.13679 -0.27358,-0.131762 -0.49874,-0.33655 -0.6178,-0.562504 -0.0561,-0.105833 -0.13679,-0.310621 -0.049,-0.492654 z"
         id="path14"
         style="fill:#ff8080;stroke-width:0.264583" /><path
         d="m 103.4835,105.23802 c -0.46699,0 -0.96202,0.14923 -1.39356,0.42042 -0.57891,0.36381 -0.97737,0.89535 -1.09379,1.45892 -0.0831,0.40216 -0.0103,0.79586 0.20532,1.10887 0.2831,0.41116 0.78343,0.6469 1.37213,0.64717 h 2.6e-4 c 0.46699,0 0.96176,-0.14949 1.39304,-0.42069 0.5789,-0.3638 0.97737,-0.89562 1.09352,-1.45918 0.0828,-0.40216 0.0101,-0.79586 -0.20532,-1.1086 -0.2831,-0.41116 -0.7829,-0.64691 -1.3716,-0.64691 z m 0.66993,1.56872 c -0.0646,0.313 -0.31856,0.63526 -0.67945,0.86227 -0.28575,0.17966 -0.60563,0.27861 -0.90038,0.27861 h -2.6e-4 c -0.2794,-2.7e-4 -0.50165,-0.09 -0.60934,-0.24633 -0.0728,-0.10583 -0.0934,-0.23945 -0.0609,-0.39661 0.0645,-0.313 0.31855,-0.635 0.67945,-0.86175 0.28601,-0.17965 0.60589,-0.2786 0.9009,-0.2786 0.27914,0 0.50112,0.0894 0.60854,0.24606 0.073,0.10583 0.0937,0.23918 0.0614,0.39635 z"
         id="path15"
         style="fill:#ff8080;stroke-width:0.264583" /><g
         id="g17"
         transform="matrix(0.26458333,0,0,0.26458333,80.055971,25.345762)"
         style="fill:#ff8080">
			<g
   id="g15"
   style="fill:#ff8080">
				<circle
   cx="172.50101"
   cy="194.16701"
   r="7.5"
   id="circle15"
   style="fill:#ff8080" />
			</g>
			<g
   id="g16"
   style="fill:#ff8080">
				<circle
   style="fill:#ff8080"
   cx="174.50101"
   cy="192.16701"
   r="2.625"
   id="circle16" />
			</g>
		</g><g
         id="g20"
         transform="matrix(0.26458333,0,0,0.26458333,80.055971,25.345762)"
         style="fill:#ff8080">
			<g
   id="g18"
   style="fill:#ff8080">
				<circle
   cx="253.50101"
   cy="190.66701"
   r="7.5"
   id="circle17"
   style="fill:#ff8080" />
			</g>
			<g
   id="g19"
   style="fill:#ff8080">
				<circle
   style="fill:#ff8080"
   cx="255.50101"
   cy="188.66701"
   r="2.625"
   id="circle18" />
			</g>
		</g></g></g></svg>
