{
    "asset" : {
        "generator" : "Khronos glTF Blender I/O v1.7.33",
        "version" : "2.0"
    },
    "scene" : 0,
    "scenes" : [
        {
            "name" : "Scene",
            "nodes" : [
                0,
                1,
                2,
                3,
                4,
                5,
                6,
                7,
                8,
                9
            ]
        }
    ],
    "nodes" : [
        {
            "mesh" : 0,
            "name" : "Body",
            "translation" : [
                0,
                0.8426692485809326,
                0
            ]
        },
        {
            "mesh" : 1,
            "name" : "Head",
            "scale" : [
                1.3813450336456299,
                1.3813450336456299,
                1.3813450336456299
            ],
            "translation" : [
                -1.0582361221313477,
                3.0767226219177246,
                0
            ]
        },
        {
            "mesh" : 2,
            "name" : "Right ear",
            "rotation" : [
                0,
                0,
                0.3615714907646179,
                0.932344377040863
            ],
            "translation" : [
                -2.3124420642852783,
                4.311331272125244,
                0
            ]
        },
        {
            "mesh" : 3,
            "name" : "Left ear",
            "rotation" : [
                -0.36154675483703613,
                -0.9322806596755981,
                -0.004227752797305584,
                -0.010901687666773796
            ],
            "translation" : [
                0.1371781826019287,
                4.311331272125244,
                0
            ]
        },
        {
            "mesh" : 4,
            "name" : "Right hoof"
        },
        {
            "mesh" : 5,
            "name" : "Left hoof",
            "scale" : [
                -1,
                1,
                1
            ],
            "translation" : [
                1.4491064548492432,
                -0.007875577546656132,
                0
            ]
        },
        {
            "mesh" : 6,
            "name" : "Plane",
            "rotation" : [
                0.6324763298034668,
                0.31618618965148926,
                0.3161862790584564,
                0.6324763894081116
            ],
            "scale" : [
                0.9743837714195251,
                1,
                0.6892164945602417
            ],
            "translation" : [
                2.1106550693511963,
                3.646392583847046,
                0
            ]
        },
        {
            "mesh" : 7,
            "name" : "Right eye",
            "translation" : [
                -1.5672402381896973,
                3.4416277408599854,
                1.2758442163467407
            ]
        },
        {
            "mesh" : 8,
            "name" : "Left eye",
            "translation" : [
                -0.6142951846122742,
                3.4416277408599854,
                1.2758442163467407
            ]
        },
        {
            "mesh" : 9,
            "name" : "Snout",
            "rotation" : [
                -0.7071067690849304,
                0,
                0,
                0.7071068286895752
            ],
            "translation" : [
                0,
                0,
                1.2032134532928467
            ]
        }
    ],
    "materials" : [
        {
            "doubleSided" : true,
            "name" : "Pig body",
            "pbrMetallicRoughness" : {
                "baseColorTexture" : {
                    "index" : 0
                },
                "metallicFactor" : 0,
                "roughnessFactor" : 0.5
            }
        },
        {
            "doubleSided" : true,
            "name" : "Pig head",
            "pbrMetallicRoughness" : {
                "baseColorTexture" : {
                    "index" : 1
                },
                "metallicFactor" : 0,
                "roughnessFactor" : 0.5
            }
        },
        {
            "doubleSided" : true,
            "name" : "Pig ear",
            "pbrMetallicRoughness" : {
                "baseColorTexture" : {
                    "index" : 2
                },
                "metallicFactor" : 0,
                "roughnessFactor" : 0.5
            }
        },
        {
            "doubleSided" : true,
            "name" : "Pig hoof",
            "pbrMetallicRoughness" : {
                "baseColorTexture" : {
                    "index" : 3
                },
                "metallicFactor" : 0,
                "roughnessFactor" : 0.5
            }
        },
        {
            "doubleSided" : true,
            "name" : "Tail",
            "pbrMetallicRoughness" : {
                "baseColorTexture" : {
                    "index" : 4
                },
                "metallicFactor" : 0,
                "roughnessFactor" : 0.5
            }
        },
        {
            "doubleSided" : true,
            "name" : "Eye",
            "pbrMetallicRoughness" : {
                "baseColorTexture" : {
                    "index" : 5
                },
                "metallicFactor" : 0,
                "roughnessFactor" : 0.5
            }
        },
        {
            "doubleSided" : true,
            "name" : "P\u00eeg snout",
            "pbrMetallicRoughness" : {
                "baseColorTexture" : {
                    "index" : 6
                },
                "metallicFactor" : 0,
                "roughnessFactor" : 0.5
            }
        }
    ],
    "meshes" : [
        {
            "name" : "Sphere",
            "primitives" : [
                {
                    "attributes" : {
                        "POSITION" : 0,
                        "NORMAL" : 1,
                        "TEXCOORD_0" : 2
                    },
                    "indices" : 3,
                    "material" : 0
                }
            ]
        },
        {
            "name" : "Sphere.001",
            "primitives" : [
                {
                    "attributes" : {
                        "POSITION" : 4,
                        "NORMAL" : 5,
                        "TEXCOORD_0" : 6
                    },
                    "indices" : 7,
                    "material" : 1
                }
            ]
        },
        {
            "name" : "Cube.001",
            "primitives" : [
                {
                    "attributes" : {
                        "POSITION" : 8,
                        "NORMAL" : 9,
                        "TEXCOORD_0" : 10
                    },
                    "indices" : 11,
                    "material" : 2
                }
            ]
        },
        {
            "name" : "Cube.002",
            "primitives" : [
                {
                    "attributes" : {
                        "POSITION" : 12,
                        "NORMAL" : 13,
                        "TEXCOORD_0" : 14
                    },
                    "indices" : 11,
                    "material" : 2
                }
            ]
        },
        {
            "name" : "Cube.003",
            "primitives" : [
                {
                    "attributes" : {
                        "POSITION" : 15,
                        "NORMAL" : 16,
                        "TEXCOORD_0" : 17
                    },
                    "indices" : 18,
                    "material" : 3
                }
            ]
        },
        {
            "name" : "Cube.004",
            "primitives" : [
                {
                    "attributes" : {
                        "POSITION" : 19,
                        "NORMAL" : 20,
                        "TEXCOORD_0" : 21
                    },
                    "indices" : 18,
                    "material" : 3
                }
            ]
        },
        {
            "name" : "Plane",
            "primitives" : [
                {
                    "attributes" : {
                        "POSITION" : 22,
                        "NORMAL" : 23,
                        "TEXCOORD_0" : 24
                    },
                    "indices" : 25,
                    "material" : 4
                }
            ]
        },
        {
            "name" : "Sphere.002",
            "primitives" : [
                {
                    "attributes" : {
                        "POSITION" : 26,
                        "NORMAL" : 27,
                        "TEXCOORD_0" : 28
                    },
                    "indices" : 29,
                    "material" : 5
                }
            ]
        },
        {
            "name" : "Sphere.003",
            "primitives" : [
                {
                    "attributes" : {
                        "POSITION" : 30,
                        "NORMAL" : 31,
                        "TEXCOORD_0" : 32
                    },
                    "indices" : 29,
                    "material" : 5
                }
            ]
        },
        {
            "name" : "Cylinder.001",
            "primitives" : [
                {
                    "attributes" : {
                        "POSITION" : 33,
                        "NORMAL" : 34,
                        "TEXCOORD_0" : 35
                    },
                    "indices" : 36,
                    "material" : 6
                }
            ]
        }
    ],
    "textures" : [
        {
            "sampler" : 0,
            "source" : 0
        },
        {
            "sampler" : 0,
            "source" : 0
        },
        {
            "sampler" : 0,
            "source" : 0
        },
        {
            "sampler" : 0,
            "source" : 0
        },
        {
            "sampler" : 0,
            "source" : 0
        },
        {
            "sampler" : 0,
            "source" : 0
        },
        {
            "sampler" : 0,
            "source" : 0
        }
    ],
    "images" : [
        {
            "mimeType" : "image/png",
            "name" : "Pig texture",
            "uri" : "Pig%20texture.png"
        }
    ],
    "accessors" : [
        {
            "bufferView" : 0,
            "componentType" : 5126,
            "count" : 230,
            "max" : [
                2.4711978435516357,
                3.0591068267822266,
                1.804901361465454
            ],
            "min" : [
                -1.1386044025421143,
                -0.5506958961486816,
                -1.8049012422561646
            ],
            "type" : "VEC3"
        },
        {
            "bufferView" : 1,
            "componentType" : 5126,
            "count" : 230,
            "type" : "VEC3"
        },
        {
            "bufferView" : 2,
            "componentType" : 5126,
            "count" : 230,
            "type" : "VEC2"
        },
        {
            "bufferView" : 3,
            "componentType" : 5123,
            "count" : 360,
            "type" : "SCALAR"
        },
        {
            "bufferView" : 4,
            "componentType" : 5126,
            "count" : 230,
            "max" : [
                1,
                1,
                1
            ],
            "min" : [
                -0.9999998211860657,
                -1,
                -1
            ],
            "type" : "VEC3"
        },
        {
            "bufferView" : 5,
            "componentType" : 5126,
            "count" : 230,
            "type" : "VEC3"
        },
        {
            "bufferView" : 6,
            "componentType" : 5126,
            "count" : 230,
            "type" : "VEC2"
        },
        {
            "bufferView" : 7,
            "componentType" : 5123,
            "count" : 360,
            "type" : "SCALAR"
        },
        {
            "bufferView" : 8,
            "componentType" : 5126,
            "count" : 24,
            "max" : [
                0.4694308340549469,
                0.1673649549484253,
                0.2609523832798004
            ],
            "min" : [
                -0.46943071484565735,
                -0.4694310426712036,
                -0.2609524428844452
            ],
            "type" : "VEC3"
        },
        {
            "bufferView" : 9,
            "componentType" : 5126,
            "count" : 24,
            "type" : "VEC3"
        },
        {
            "bufferView" : 10,
            "componentType" : 5126,
            "count" : 24,
            "type" : "VEC2"
        },
        {
            "bufferView" : 11,
            "componentType" : 5123,
            "count" : 36,
            "type" : "SCALAR"
        },
        {
            "bufferView" : 12,
            "componentType" : 5126,
            "count" : 24,
            "max" : [
                0.4694308340549469,
                0.1673649549484253,
                0.2609523832798004
            ],
            "min" : [
                -0.46943071484565735,
                -0.4694310426712036,
                -0.2609524428844452
            ],
            "type" : "VEC3"
        },
        {
            "bufferView" : 13,
            "componentType" : 5126,
            "count" : 24,
            "type" : "VEC3"
        },
        {
            "bufferView" : 14,
            "componentType" : 5126,
            "count" : 24,
            "type" : "VEC2"
        },
        {
            "bufferView" : 15,
            "componentType" : 5126,
            "count" : 40,
            "max" : [
                0.6199141144752502,
                0.7138413786888123,
                0.367076575756073
            ],
            "min" : [
                -0.4431735873222351,
                -0.02412968873977661,
                -0.36707648634910583
            ],
            "type" : "VEC3"
        },
        {
            "bufferView" : 16,
            "componentType" : 5126,
            "count" : 40,
            "type" : "VEC3"
        },
        {
            "bufferView" : 17,
            "componentType" : 5126,
            "count" : 40,
            "type" : "VEC2"
        },
        {
            "bufferView" : 18,
            "componentType" : 5123,
            "count" : 60,
            "type" : "SCALAR"
        },
        {
            "bufferView" : 19,
            "componentType" : 5126,
            "count" : 40,
            "max" : [
                0.6199141144752502,
                0.7138413786888123,
                0.367076575756073
            ],
            "min" : [
                -0.4431735873222351,
                -0.02412968873977661,
                -0.36707648634910583
            ],
            "type" : "VEC3"
        },
        {
            "bufferView" : 20,
            "componentType" : 5126,
            "count" : 40,
            "type" : "VEC3"
        },
        {
            "bufferView" : 21,
            "componentType" : 5126,
            "count" : 40,
            "type" : "VEC2"
        },
        {
            "bufferView" : 22,
            "componentType" : 5126,
            "count" : 4,
            "max" : [
                0.5200555920600891,
                0,
                0.5200555920600891
            ],
            "min" : [
                -0.5200555920600891,
                0,
                -0.5200555920600891
            ],
            "type" : "VEC3"
        },
        {
            "bufferView" : 23,
            "componentType" : 5126,
            "count" : 4,
            "type" : "VEC3"
        },
        {
            "bufferView" : 24,
            "componentType" : 5126,
            "count" : 4,
            "type" : "VEC2"
        },
        {
            "bufferView" : 25,
            "componentType" : 5123,
            "count" : 6,
            "type" : "SCALAR"
        },
        {
            "bufferView" : 26,
            "componentType" : 5126,
            "count" : 130,
            "max" : [
                0.3607889413833618,
                0.36078792810440063,
                0.36078786849975586
            ],
            "min" : [
                -0.3607880473136902,
                -0.36078906059265137,
                -0.36078906059265137
            ],
            "type" : "VEC3"
        },
        {
            "bufferView" : 27,
            "componentType" : 5126,
            "count" : 130,
            "type" : "VEC3"
        },
        {
            "bufferView" : 28,
            "componentType" : 5126,
            "count" : 130,
            "type" : "VEC2"
        },
        {
            "bufferView" : 29,
            "componentType" : 5123,
            "count" : 672,
            "type" : "SCALAR"
        },
        {
            "bufferView" : 30,
            "componentType" : 5126,
            "count" : 130,
            "max" : [
                0.3607889413833618,
                0.36078792810440063,
                0.36078786849975586
            ],
            "min" : [
                -0.3607880473136902,
                -0.36078906059265137,
                -0.36078906059265137
            ],
            "type" : "VEC3"
        },
        {
            "bufferView" : 31,
            "componentType" : 5126,
            "count" : 130,
            "type" : "VEC3"
        },
        {
            "bufferView" : 32,
            "componentType" : 5126,
            "count" : 130,
            "type" : "VEC2"
        },
        {
            "bufferView" : 33,
            "componentType" : 5126,
            "count" : 96,
            "max" : [
                -0.5078216791152954,
                0.2914578318595886,
                2.8893182277679443
            ],
            "min" : [
                -1.6469368934631348,
                -0.14303040504455566,
                1.9645583629608154
            ],
            "type" : "VEC3"
        },
        {
            "bufferView" : 34,
            "componentType" : 5126,
            "count" : 96,
            "type" : "VEC3"
        },
        {
            "bufferView" : 35,
            "componentType" : 5126,
            "count" : 96,
            "type" : "VEC2"
        },
        {
            "bufferView" : 36,
            "componentType" : 5123,
            "count" : 180,
            "type" : "SCALAR"
        }
    ],
    "bufferViews" : [
        {
            "buffer" : 0,
            "byteLength" : 2760,
            "byteOffset" : 0
        },
        {
            "buffer" : 0,
            "byteLength" : 2760,
            "byteOffset" : 2760
        },
        {
            "buffer" : 0,
            "byteLength" : 1840,
            "byteOffset" : 5520
        },
        {
            "buffer" : 0,
            "byteLength" : 720,
            "byteOffset" : 7360
        },
        {
            "buffer" : 0,
            "byteLength" : 2760,
            "byteOffset" : 8080
        },
        {
            "buffer" : 0,
            "byteLength" : 2760,
            "byteOffset" : 10840
        },
        {
            "buffer" : 0,
            "byteLength" : 1840,
            "byteOffset" : 13600
        },
        {
            "buffer" : 0,
            "byteLength" : 720,
            "byteOffset" : 15440
        },
        {
            "buffer" : 0,
            "byteLength" : 288,
            "byteOffset" : 16160
        },
        {
            "buffer" : 0,
            "byteLength" : 288,
            "byteOffset" : 16448
        },
        {
            "buffer" : 0,
            "byteLength" : 192,
            "byteOffset" : 16736
        },
        {
            "buffer" : 0,
            "byteLength" : 72,
            "byteOffset" : 16928
        },
        {
            "buffer" : 0,
            "byteLength" : 288,
            "byteOffset" : 17000
        },
        {
            "buffer" : 0,
            "byteLength" : 288,
            "byteOffset" : 17288
        },
        {
            "buffer" : 0,
            "byteLength" : 192,
            "byteOffset" : 17576
        },
        {
            "buffer" : 0,
            "byteLength" : 480,
            "byteOffset" : 17768
        },
        {
            "buffer" : 0,
            "byteLength" : 480,
            "byteOffset" : 18248
        },
        {
            "buffer" : 0,
            "byteLength" : 320,
            "byteOffset" : 18728
        },
        {
            "buffer" : 0,
            "byteLength" : 120,
            "byteOffset" : 19048
        },
        {
            "buffer" : 0,
            "byteLength" : 480,
            "byteOffset" : 19168
        },
        {
            "buffer" : 0,
            "byteLength" : 480,
            "byteOffset" : 19648
        },
        {
            "buffer" : 0,
            "byteLength" : 320,
            "byteOffset" : 20128
        },
        {
            "buffer" : 0,
            "byteLength" : 48,
            "byteOffset" : 20448
        },
        {
            "buffer" : 0,
            "byteLength" : 48,
            "byteOffset" : 20496
        },
        {
            "buffer" : 0,
            "byteLength" : 32,
            "byteOffset" : 20544
        },
        {
            "buffer" : 0,
            "byteLength" : 12,
            "byteOffset" : 20576
        },
        {
            "buffer" : 0,
            "byteLength" : 1560,
            "byteOffset" : 20588
        },
        {
            "buffer" : 0,
            "byteLength" : 1560,
            "byteOffset" : 22148
        },
        {
            "buffer" : 0,
            "byteLength" : 1040,
            "byteOffset" : 23708
        },
        {
            "buffer" : 0,
            "byteLength" : 1344,
            "byteOffset" : 24748
        },
        {
            "buffer" : 0,
            "byteLength" : 1560,
            "byteOffset" : 26092
        },
        {
            "buffer" : 0,
            "byteLength" : 1560,
            "byteOffset" : 27652
        },
        {
            "buffer" : 0,
            "byteLength" : 1040,
            "byteOffset" : 29212
        },
        {
            "buffer" : 0,
            "byteLength" : 1152,
            "byteOffset" : 30252
        },
        {
            "buffer" : 0,
            "byteLength" : 1152,
            "byteOffset" : 31404
        },
        {
            "buffer" : 0,
            "byteLength" : 768,
            "byteOffset" : 32556
        },
        {
            "buffer" : 0,
            "byteLength" : 360,
            "byteOffset" : 33324
        }
    ],
    "samplers" : [
        {
            "magFilter" : 9729,
            "minFilter" : 9987
        }
    ],
    "buffers" : [
        {
            "byteLength" : 33684,
            "uri" : "pig.bin"
        }
    ]
}
